# xmcd CD database file
#
# Track frame offsets:
#	180
#	10403
#	23077
#	30934
#	39094
#	49241
#	58644
#	69792
#	80074
#	92200
#	99933
#	112622
#	123288
#	135492
#	145768
#	152497
#	158295
#	166917
#	176759
#	182803
#	193680
#	204525
#
# Disc length: 2857 seconds
#
# Revision: 0
# Processed by: cddbd v1.4PL0 Copyright (c) Steve Scherf et al.
# Submitted via: CDex 1.51
#
DISCID=090b2716
DTITLE=Johnny Cash - Singing Storyteller and Rough Cut King of Country Music
DYEAR=1900
DGENRE=Country
TTITLE0=Goodbye Little Darling
TTITLE1=Give My Love To Rose
TTITLE2=Hey Good Lookin'
TTITLE3=I Can't Help It
TTITLE4=I Could Never Be Ashamed Of You
TTITLE5=I Couldn't Keep From Crying
TTITLE6=I Love You Because
TTITLE7=The Ways Of A Woman In Love
TTITLE8=You're The Nearest Thing To Heavan
TTITLE9=Come In Stranger
TTITLE10=Next In Line
TTITLE11=Cold, Cold Heart
TTITLE12=Goodnight Irene
TTITLE13=Straight A's In Love
TTITLE14=You're My Baby
TTITLE15=My Treasure
TTITLE16=I Forgot To Remember To Forget
TTITLE17=Born To Lose
TTITLE18=You Tell Me
TTITLE19=Fools Hall Of Fame
TTITLE20=I Just Thought You'd Like To Know
TTITLE21=Story Of A Broken Heart
EXTD=
EXTT0=
EXTT1=
EXTT2=
EXTT3=
EXTT4=
EXTT5=
EXTT6=
EXTT7=
EXTT8=
EXTT9=
EXTT10=
EXTT11=
EXTT12=
EXTT13=
EXTT14=
EXTT15=
EXTT16=
EXTT17=
EXTT18=
EXTT19=
EXTT20=
EXTT21=
PLAYORDER=
